<?xml version="1.0" standalone="no"?>
<!DOCTYPE svg PUBLIC "-//W3C//DTD SVG 20010904//EN"
 "http://www.w3.org/TR/2001/REC-SVG-20010904/DTD/svg10.dtd">
<svg version="1.0" xmlns="http://www.w3.org/2000/svg"
 width="512.000000pt" height="512.000000pt" viewBox="0 0 512.000000 512.000000"
 preserveAspectRatio="xMidYMid meet">
<metadata>
Created by potrace 1.14, written by Peter Selinger 2001-2017
</metadata>
<g transform="translate(0.000000,512.000000) scale(0.100000,-0.100000)"
fill="#000000" stroke="none">
<path d="M1199 5106 c-2 -2 -26 -6 -52 -9 -78 -10 -212 -46 -303 -83 -347
-140 -625 -427 -752 -775 -84 -231 -81 -158 -81 -1679 0 -769 4 -1369 9 -1400
5 -30 12 -68 14 -85 15 -88 74 -252 129 -355 193 -361 522 -604 933 -689 84
-18 160 -19 1469 -17 759 1 1398 5 1420 9 22 4 49 9 61 11 53 10 157 43 239
76 356 144 639 447 758 813 66 200 62 99 62 1637 0 1297 -1 1401 -18 1477
-108 503 -471 893 -955 1027 -162 45 -156 45 -1578 45 -743 1 -1353 -1 -1355
-3z"/>
</g>
</svg>
